# xmcd CD database file
#
# Track frame offsets:
#	150
#	11032
#	23360
#	33800
#	46356
#	58947
#	72551
#	83793
#	98672
#	111762
#	124871
#	140096
#	151594
#	164875
#	179614
#	245014
#	257954
#	273872
#	286972
#	303375
#
# Disc length: 4231 seconds
#
# Revision: 1
# Processed by: cddbd v1.4PL0 Copyright (c) Steve Scherf et al.
# Submitted via: CDex 1.50beta9
#
DISCID=1d108514
DTITLE=Cab Calloway - Masters of Jazz - Cab Calloway [CD2)
DYEAR=1999
DGENRE=Jazz
TTITLE0=Do You Wanna Jump, Children?
TTITLE1=Ad-De-Day
TTITLE2=Floogie Walk
TTITLE3=Crescendo In Drums
TTITLE4=I Ain't Gettin' Nowhere Fast
TTITLE5=Chop Chop Charlie Chan
TTITLE6=The Lone Arranger
TTITLE7=Hard Times
TTITLE8=Come On With The Come On
TTITLE9=Bye-Bye Blues
TTITLE10=Willow Weep For Me
TTITLE11=Jonah Joins The Cab
TTITLE12=Special Delivery
TTITLE13=Hey Doc!
TTITLE14=from "Stormy Weather" soundtrack
TTITLE15=105 In The Shade
TTITLE16=Cruisin' With Cab
TTITLE17=The Honeydripper
TTITLE18=Intro, Russian Lullaby
TTITLE19=Two Blocks Down, Turn To The Left
EXTD=YEAR: 1999
EXTT0=
EXTT1=
EXTT2=
EXTT3=
EXTT4=
EXTT5=
EXTT6=
EXTT7=
EXTT8=
EXTT9=
EXTT10=
EXTT11=
EXTT12=
EXTT13=
EXTT14=Geechee Joe\nThere's No Two Ways About Love\nMy, My, Ain't That Something?\nThe Jumpin' Jive\nFinale
EXTT15=
EXTT16=
EXTT17=
EXTT18=
EXTT19=
PLAYORDER=
